<svg xmlns="http://www.w3.org/2000/svg" version="1.1" xmlns:xlink="http://www.w3.org/1999/xlink" xmlns:svgjs="http://svgjs.dev/svgjs" width="1000" height="1125" viewBox="0 0 1000 1125"><g transform="matrix(1,0,0,1,0.0011008540699322111,0)"><svg viewBox="0 0 320 360" data-background-color="#ffffff" preserveAspectRatio="xMidYMid meet" height="1125" width="1000" xmlns="http://www.w3.org/2000/svg" xmlns:xlink="http://www.w3.org/1999/xlink"><g id="tight-bounds" transform="matrix(1,0,0,1,0.00010353528136874957,0)"><svg viewBox="0 0 320 360" height="360" width="320"><g><svg></svg></g><g><svg viewBox="0 0 320 360" height="360" width="320"><g><path xmlns="http://www.w3.org/2000/svg" d="M307.925 179.999l6.575-11.387c11.322-19.607 4.604-44.679-15.003-56.001l-11.387-6.575v-13.151c0-22.639-18.354-40.994-40.994-40.994h-13.151l-6.575-11.387c-11.322-19.607-36.393-26.325-56.001-15.003l-11.39 6.572-11.387-6.576c-19.607-11.318-44.679-4.6-56.001 15.007l-6.575 11.387h-13.151c-22.639 0-40.994 18.354-40.994 40.994v13.151l-11.387 6.575c-19.607 11.322-26.325 36.393-15.003 56.001l6.572 11.387-6.576 11.387c-11.318 19.607-4.6 44.679 15.007 56l11.387 6.576v13.15c0 22.639 18.354 40.994 40.994 40.994h13.151l6.575 11.387c11.322 19.607 36.393 26.325 56.001 15.003l11.387-6.571 11.387 6.575c19.607 11.322 44.679 4.604 56-15.003l6.576-11.387h13.15c22.639 0 40.994-18.354 40.994-40.994v-13.151l11.387-6.575c19.607-11.322 26.325-36.393 15.003-56.001zM297.702 115.716c8.655 4.996 14.842 13.062 17.428 22.713 2.586 9.65 1.261 19.734-3.735 28.384l-5.538 9.596-17.747-30.74v-35.494zM251.155 271.155l-57.791 33.365h-66.731l-57.791-33.365-33.365-57.791v-66.731l33.365-57.791 57.791-33.365h66.731l57.791 33.365 33.365 57.791v66.731zM284.517 220.539v31.351l-27.151 15.676zM247.566 277.366l-15.676 27.151h-31.351zM187.15 308.106l-27.151 15.676-27.151-15.676zM119.459 304.517h-31.352l-15.676-27.151zM62.632 267.566l-27.151-15.676v-31.351zM31.891 207.15l-15.675-27.151 15.675-27.151zM35.481 139.459v-31.352l27.151-15.676zM72.431 82.632l15.676-27.151h31.352zM132.848 51.891l27.151-15.675 27.151 15.675zM200.539 55.481h31.351l15.676 27.151zM257.366 92.431l27.151 15.676v31.352zM288.106 152.848l15.676 27.151-15.676 27.151zM247.112 55.481c9.992 0 19.384 3.889 26.452 10.956 7.063 7.063 10.956 16.46 10.957 26.452v11.079l-30.741-17.747-17.747-30.74zM173.18 28.606c8.655-4.996 18.735-6.322 28.385-3.735 9.65 2.586 17.716 8.777 22.712 17.428l5.538 9.596h-35.494l-30.741-17.747zM95.716 42.295c4.996-8.655 13.062-14.842 22.713-17.428 9.65-2.586 19.734-1.261 28.384 3.736l9.596 5.537-30.74 17.747h-35.494zM35.481 92.885c0-9.992 3.889-19.384 10.956-26.452 7.063-7.063 16.46-10.956 26.452-10.956h11.079l-17.747 30.74-30.74 17.747zM8.606 166.817c-4.996-8.655-6.322-18.735-3.735-28.385 2.586-9.65 8.777-17.716 17.428-22.712l9.596-5.538v35.495l-17.747 30.74zM22.295 244.281c-8.655-4.996-14.842-13.062-17.428-22.712-2.586-9.65-1.261-19.734 3.736-28.385l5.537-9.596 17.747 30.74v35.495zM72.885 304.517c-9.992 0-19.384-3.889-26.452-10.957-7.063-7.063-10.956-16.46-10.956-26.451v-11.08l30.74 17.747 17.747 30.741zM146.817 331.391c-8.655 4.996-18.735 6.322-28.385 3.735-9.65-2.586-17.716-8.777-22.712-17.428l-5.538-9.596h35.495l30.74 17.747zM224.281 317.702c-4.996 8.655-13.062 14.842-22.712 17.428-9.65 2.586-19.734 1.261-28.385-3.735l-9.596-5.538 30.74-17.747h35.495zM284.517 267.112c0 9.992-3.889 19.384-10.957 26.452-7.063 7.063-16.46 10.956-26.451 10.957h-11.08l17.747-30.741 30.741-17.747zM315.13 221.565c-2.586 9.65-8.777 17.716-17.428 22.712l-9.596 5.538v-35.494l17.747-30.741 5.538 9.596c4.996 8.658 6.326 18.739 3.739 28.389z" fill="#000000" fill-rule="nonzero" stroke="none" stroke-width="1" stroke-linecap="butt" stroke-linejoin="miter" stroke-miterlimit="10" stroke-dasharray="" stroke-dashoffset="0" font-family="none" font-weight="none" font-size="none" text-anchor="none" style="mix-blend-mode: normal" data-fill-palette-color="tertiary"></path></g><g transform="matrix(1,0,0,1,64,167.38376587520708)"><svg viewBox="0 0 192 25.232468249585867" height="25.232468249585867" width="192"><g><svg viewBox="0 0 192 25.232468249585867" height="25.232468249585867" width="192"><g><svg viewBox="0 0 192 25.232468249585867" height="25.232468249585867" width="192"><g><svg viewBox="0 0 192 25.232468249585867" height="25.232468249585867" width="192"><g id="textblocktransform"><svg viewBox="0 0 192 25.232468249585867" height="25.232468249585867" width="192" id="textblock"><g><svg viewBox="0 0 192 25.232468249585867" height="25.232468249585867" width="192"><g transform="matrix(1,0,0,1,0,0)"><svg width="192" viewBox="4.25 -35.04999923706055 271.6300048828125 35.70000076293945" height="25.232468249585867" data-palette-color="#111111"><path d="M4.25-34.4L8.9-34.4 8.9 0 4.25 0 4.25-34.4ZM43.25-34.4L45.9 0 41.45 0 40.4-15.55Q39.7-26 39.65-29.95L39.65-29.95 33.05-3.9 28.7-3.9 21.8-29.95Q21.85-25.6 21.25-15.45L21.25-15.45 20.25 0 15.85 0 18.5-34.4 24.55-34.4 30.95-8.95 37.1-34.4 43.25-34.4ZM74.6 0L69.8 0 67.5-8.75 55.95-8.75 53.65 0 49 0 58.95-34.4 64.65-34.4 74.6 0ZM61.75-30.7L56.9-12.4 66.55-12.4 61.75-30.7ZM91.14-35.05Q94.04-35.05 96.22-34.13 98.39-33.2 100.49-31.3L100.49-31.3 97.99-28.7Q96.29-30.1 94.74-30.73 93.19-31.35 91.24-31.35L91.24-31.35Q87.34-31.35 84.84-28.03 82.34-24.7 82.34-17.25L82.34-17.25Q82.34-9.65 84.44-6.38 86.54-3.1 90.74-3.1L90.74-3.1Q93.84-3.1 96.34-4.6L96.34-4.6 96.34-15.35 91.09-15.35 90.59-19 100.84-19 100.84-2.45Q96.09 0.65 90.74 0.65L90.74 0.65Q84.34 0.65 80.89-3.83 77.44-8.3 77.44-17.3L77.44-17.3Q77.44-23.1 79.29-27.1 81.14-31.1 84.27-33.08 87.39-35.05 91.14-35.05L91.14-35.05ZM107.84-34.4L112.49-34.4 112.49 0 107.84 0 107.84-34.4ZM142.79-34.4L142.79 0 136.79 0 124.54-29.55Q125.14-22.95 125.14-16.7L125.14-16.7 125.14 0 120.94 0 120.94-34.4 126.89-34.4 139.19-4.8Q138.99-6.55 138.76-9.6 138.54-12.65 138.54-15.65L138.54-15.65 138.54-34.4 142.79-34.4ZM172.99 0L168.19 0 165.89-8.75 154.34-8.75 152.04 0 147.39 0 157.34-34.4 163.04-34.4 172.99 0ZM160.14-30.7L155.29-12.4 164.94-12.4 160.14-30.7ZM199.63 0L194.48 0 187.08-14.65 186.78-14.65 182.23-14.65 182.23 0 177.58 0 177.58-34.4 185.63-34.4Q197.93-34.4 197.93-24.7L197.93-24.7Q197.93-21.3 196.28-18.95 194.63-16.6 191.43-15.5L191.43-15.5 199.63 0ZM185.98-18.2Q189.58-18.2 191.33-19.78 193.08-21.35 193.08-24.7L193.08-24.7Q193.08-27.85 191.31-29.35 189.53-30.85 185.53-30.85L185.53-30.85 182.23-30.85 182.23-18.2 185.98-18.2ZM204.83-34.4L209.48-34.4 209.48 0 204.83 0 204.83-34.4ZM239.38-34.4L239.38-10.1Q239.38-5.35 236.53-2.35 233.68 0.65 228.38 0.65L228.38 0.65Q223.03 0.65 220.23-2.33 217.43-5.3 217.43-10.1L217.43-10.1 217.43-34.4 222.08-34.4 222.08-10.4Q222.08-3.15 228.38-3.15L228.38-3.15Q234.68-3.15 234.68-10.4L234.68-10.4 234.68-34.4 239.38-34.4ZM273.23-34.4L275.88 0 271.43 0 270.38-15.55Q269.68-26 269.63-29.95L269.63-29.95 263.03-3.9 258.68-3.9 251.78-29.95Q251.83-25.6 251.23-15.45L251.23-15.45 250.23 0 245.83 0 248.48-34.4 254.53-34.4 260.93-8.95 267.08-34.4 273.23-34.4Z" opacity="1" transform="matrix(1,0,0,1,0,0)" fill="#000000" class="undefined-text-0" data-fill-palette-color="primary" id="text-0"></path></svg></g></svg></g></svg></g></svg></g><g></g></svg></g></svg></g></svg></g></svg></g><defs></defs></svg><rect width="320" height="360" fill="none" stroke="none" visibility="hidden"></rect></g></svg></g></svg>